<?xml version="1.0" encoding="UTF-8" standalone="no"?>
<!DOCTYPE svg PUBLIC "-//W3C//DTD SVG 1.1//EN"
 "http://www.w3.org/Graphics/SVG/1.1/DTD/svg11.dtd">
<!-- Generated by graphviz version 14.1.3 (0)
 -->
<!-- Title: G Pages: 1 -->
<svg width="657pt" height="624pt"
 viewBox="0.00 0.00 657.00 624.00" xmlns="http://www.w3.org/2000/svg" xmlns:xlink="http://www.w3.org/1999/xlink">
<g id="graph0" class="graph" transform="scale(1 1) rotate(0) translate(4 619.75)">
<title>G</title>
<polygon fill="#fffafa" stroke="none" points="-4,4 -4,-619.75 652.5,-619.75 652.5,4 -4,4"/>
<!-- node_0x7c13747e0010 -->
<g id="node1" class="node">
<title>node_0x7c13747e0010</title>
<path fill="#00ffff" stroke="#964b00" d="M257.25,-539.5C257.25,-539.5 383.5,-539.5 383.5,-539.5 389.5,-539.5 395.5,-545.5 395.5,-551.5 395.5,-551.5 395.5,-603.25 395.5,-603.25 395.5,-609.25 389.5,-615.25 383.5,-615.25 383.5,-615.25 257.25,-615.25 257.25,-615.25 251.25,-615.25 245.25,-609.25 245.25,-603.25 245.25,-603.25 245.25,-551.5 245.25,-551.5 245.25,-545.5 251.25,-539.5 257.25,-539.5"/>
<text xml:space="preserve" text-anchor="middle" x="320.38" y="-597.95" font-family="Times,serif" font-size="14.00">type = OPERATOR</text>
<polyline fill="none" stroke="#964b00" points="245.25,-590 395.5,-590"/>
<text xml:space="preserve" text-anchor="middle" x="320" y="-572.7" font-family="Times,serif" font-size="14.00">val = 3(OP_NOT)</text>
<polyline fill="none" stroke="#964b00" points="245.25,-564.75 395.5,-564.75"/>
<text xml:space="preserve" text-anchor="middle" x="282.25" y="-547.45" font-family="Times,serif" font-size="14.00">L</text>
<polyline fill="none" stroke="#964b00" points="319.25,-539.5 319.25,-564.75"/>
<text xml:space="preserve" text-anchor="middle" x="357" y="-547.45" font-family="Times,serif" font-size="14.00">R</text>
</g>
<!-- node_0x7c13747e01d0 -->
<g id="node2" class="node">
<title>node_0x7c13747e01d0</title>
<path fill="#00ffff" stroke="#964b00" d="M257.25,-404.75C257.25,-404.75 383.5,-404.75 383.5,-404.75 389.5,-404.75 395.5,-410.75 395.5,-416.75 395.5,-416.75 395.5,-468.5 395.5,-468.5 395.5,-474.5 389.5,-480.5 383.5,-480.5 383.5,-480.5 257.25,-480.5 257.25,-480.5 251.25,-480.5 245.25,-474.5 245.25,-468.5 245.25,-468.5 245.25,-416.75 245.25,-416.75 245.25,-410.75 251.25,-404.75 257.25,-404.75"/>
<text xml:space="preserve" text-anchor="middle" x="320.38" y="-463.2" font-family="Times,serif" font-size="14.00">type = OPERATOR</text>
<polyline fill="none" stroke="#964b00" points="245.25,-455.25 395.5,-455.25"/>
<text xml:space="preserve" text-anchor="middle" x="320.38" y="-437.95" font-family="Times,serif" font-size="14.00">val = 1(OP_AND)</text>
<polyline fill="none" stroke="#964b00" points="245.25,-430 395.5,-430"/>
<text xml:space="preserve" text-anchor="middle" x="282.25" y="-412.7" font-family="Times,serif" font-size="14.00">L</text>
<polyline fill="none" stroke="#964b00" points="319.25,-404.75 319.25,-430"/>
<text xml:space="preserve" text-anchor="middle" x="357" y="-412.7" font-family="Times,serif" font-size="14.00">R</text>
</g>
<!-- node_0x7c13747e0010&#45;&gt;node_0x7c13747e01d0 -->
<g id="edge1" class="edge">
<title>node_0x7c13747e0010&#45;&gt;node_0x7c13747e01d0</title>
<path fill="none" stroke="#964b00" d="M320.38,-527.53C320.38,-515.92 320.38,-503.53 320.38,-491.94"/>
<polygon fill="#964b00" stroke="#964b00" points="316.88,-527.53 320.38,-537.53 323.88,-527.53 316.88,-527.53"/>
<polygon fill="#964b00" stroke="#964b00" points="323.88,-492.19 320.38,-482.19 316.88,-492.19 323.88,-492.19"/>
</g>
<!-- node_0x7c13747e0110 -->
<g id="node3" class="node">
<title>node_0x7c13747e0110</title>
<path fill="#00ffff" stroke="#964b00" d="M171.25,-270C171.25,-270 297.5,-270 297.5,-270 303.5,-270 309.5,-276 309.5,-282 309.5,-282 309.5,-333.75 309.5,-333.75 309.5,-339.75 303.5,-345.75 297.5,-345.75 297.5,-345.75 171.25,-345.75 171.25,-345.75 165.25,-345.75 159.25,-339.75 159.25,-333.75 159.25,-333.75 159.25,-282 159.25,-282 159.25,-276 165.25,-270 171.25,-270"/>
<text xml:space="preserve" text-anchor="middle" x="234.38" y="-328.45" font-family="Times,serif" font-size="14.00">type = OPERATOR</text>
<polyline fill="none" stroke="#964b00" points="159.25,-320.5 309.5,-320.5"/>
<text xml:space="preserve" text-anchor="middle" x="234.25" y="-303.2" font-family="Times,serif" font-size="14.00">val = 2(OP_OR)</text>
<polyline fill="none" stroke="#964b00" points="159.25,-295.25 309.5,-295.25"/>
<text xml:space="preserve" text-anchor="middle" x="196.25" y="-277.95" font-family="Times,serif" font-size="14.00">L</text>
<polyline fill="none" stroke="#964b00" points="233.25,-270 233.25,-295.25"/>
<text xml:space="preserve" text-anchor="middle" x="271" y="-277.95" font-family="Times,serif" font-size="14.00">R</text>
</g>
<!-- node_0x7c13747e01d0&#45;&gt;node_0x7c13747e0110 -->
<g id="edge2" class="edge">
<title>node_0x7c13747e01d0&#45;&gt;node_0x7c13747e0110</title>
<path fill="none" stroke="#964b00" d="M290.2,-395.05C281.89,-382.22 272.88,-368.31 264.57,-355.49"/>
<polygon fill="#964b00" stroke="#964b00" points="286.99,-396.53 295.37,-403.02 292.87,-392.73 286.99,-396.53"/>
<polygon fill="#964b00" stroke="#964b00" points="267.58,-353.69 259.2,-347.2 261.7,-357.49 267.58,-353.69"/>
</g>
<!-- node_0x7c13747e0290 -->
<g id="node6" class="node">
<title>node_0x7c13747e0290</title>
<path fill="#00ffff" stroke="#964b00" d="M343.25,-270C343.25,-270 469.5,-270 469.5,-270 475.5,-270 481.5,-276 481.5,-282 481.5,-282 481.5,-333.75 481.5,-333.75 481.5,-339.75 475.5,-345.75 469.5,-345.75 469.5,-345.75 343.25,-345.75 343.25,-345.75 337.25,-345.75 331.25,-339.75 331.25,-333.75 331.25,-333.75 331.25,-282 331.25,-282 331.25,-276 337.25,-270 343.25,-270"/>
<text xml:space="preserve" text-anchor="middle" x="406.38" y="-328.45" font-family="Times,serif" font-size="14.00">type = OPERATOR</text>
<polyline fill="none" stroke="#964b00" points="331.25,-320.5 481.5,-320.5"/>
<text xml:space="preserve" text-anchor="middle" x="406.25" y="-303.2" font-family="Times,serif" font-size="14.00">val = 2(OP_OR)</text>
<polyline fill="none" stroke="#964b00" points="331.25,-295.25 481.5,-295.25"/>
<text xml:space="preserve" text-anchor="middle" x="368.25" y="-277.95" font-family="Times,serif" font-size="14.00">L</text>
<polyline fill="none" stroke="#964b00" points="405.25,-270 405.25,-295.25"/>
<text xml:space="preserve" text-anchor="middle" x="443" y="-277.95" font-family="Times,serif" font-size="14.00">R</text>
</g>
<!-- node_0x7c13747e01d0&#45;&gt;node_0x7c13747e0290 -->
<g id="edge5" class="edge">
<title>node_0x7c13747e01d0&#45;&gt;node_0x7c13747e0290</title>
<path fill="none" stroke="#964b00" d="M350.55,-395.05C358.86,-382.22 367.87,-368.31 376.18,-355.49"/>
<polygon fill="#964b00" stroke="#964b00" points="347.88,-392.73 345.38,-403.02 353.76,-396.53 347.88,-392.73"/>
<polygon fill="#964b00" stroke="#964b00" points="379.05,-357.49 381.55,-347.2 373.17,-353.69 379.05,-357.49"/>
</g>
<!-- node_0x7c13747e00d0 -->
<g id="node4" class="node">
<title>node_0x7c13747e00d0</title>
<path fill="#daa520" stroke="#964b00" d="M12,-135.25C12,-135.25 130.75,-135.25 130.75,-135.25 136.75,-135.25 142.75,-141.25 142.75,-147.25 142.75,-147.25 142.75,-199 142.75,-199 142.75,-205 136.75,-211 130.75,-211 130.75,-211 12,-211 12,-211 6,-211 0,-205 0,-199 0,-199 0,-147.25 0,-147.25 0,-141.25 6,-135.25 12,-135.25"/>
<text xml:space="preserve" text-anchor="middle" x="71.38" y="-193.7" font-family="Times,serif" font-size="14.00">type = VARIABLE</text>
<polyline fill="none" stroke="#964b00" points="0,-185.75 142.75,-185.75"/>
<text xml:space="preserve" text-anchor="middle" x="71.38" y="-168.45" font-family="Times,serif" font-size="14.00">val = A</text>
<polyline fill="none" stroke="#964b00" points="0,-160.5 142.75,-160.5"/>
<text xml:space="preserve" text-anchor="middle" x="35.5" y="-143.2" font-family="Times,serif" font-size="14.00">0</text>
<polyline fill="none" stroke="#964b00" points="71,-135.25 71,-160.5"/>
<text xml:space="preserve" text-anchor="middle" x="106.5" y="-143.2" font-family="Times,serif" font-size="14.00">0</text>
</g>
<!-- node_0x7c13747e0110&#45;&gt;node_0x7c13747e00d0 -->
<g id="edge3" class="edge">
<title>node_0x7c13747e0110&#45;&gt;node_0x7c13747e00d0</title>
<path fill="none" stroke="#964b00" d="M179.7,-262.35C162.41,-248.27 143.3,-232.7 126.01,-218.62"/>
<polygon fill="#964b00" stroke="#964b00" points="177.4,-264.99 187.36,-268.59 181.82,-259.56 177.4,-264.99"/>
<polygon fill="#964b00" stroke="#964b00" points="128.29,-215.96 118.33,-212.36 123.87,-221.39 128.29,-215.96"/>
</g>
<!-- node_0x7c13747e0150 -->
<g id="node5" class="node">
<title>node_0x7c13747e0150</title>
<path fill="#daa520" stroke="#964b00" d="M177,-135.25C177,-135.25 295.75,-135.25 295.75,-135.25 301.75,-135.25 307.75,-141.25 307.75,-147.25 307.75,-147.25 307.75,-199 307.75,-199 307.75,-205 301.75,-211 295.75,-211 295.75,-211 177,-211 177,-211 171,-211 165,-205 165,-199 165,-199 165,-147.25 165,-147.25 165,-141.25 171,-135.25 177,-135.25"/>
<text xml:space="preserve" text-anchor="middle" x="236.38" y="-193.7" font-family="Times,serif" font-size="14.00">type = VARIABLE</text>
<polyline fill="none" stroke="#964b00" points="165,-185.75 307.75,-185.75"/>
<text xml:space="preserve" text-anchor="middle" x="236.25" y="-168.45" font-family="Times,serif" font-size="14.00">val = B</text>
<polyline fill="none" stroke="#964b00" points="165,-160.5 307.75,-160.5"/>
<text xml:space="preserve" text-anchor="middle" x="200.5" y="-143.2" font-family="Times,serif" font-size="14.00">0</text>
<polyline fill="none" stroke="#964b00" points="236,-135.25 236,-160.5"/>
<text xml:space="preserve" text-anchor="middle" x="271.5" y="-143.2" font-family="Times,serif" font-size="14.00">0</text>
</g>
<!-- node_0x7c13747e0110&#45;&gt;node_0x7c13747e0150 -->
<g id="edge4" class="edge">
<title>node_0x7c13747e0110&#45;&gt;node_0x7c13747e0150</title>
<path fill="none" stroke="#964b00" d="M235.1,-258.49C235.28,-246.78 235.47,-234.27 235.65,-222.56"/>
<polygon fill="#964b00" stroke="#964b00" points="231.61,-257.98 234.96,-268.03 238.61,-258.08 231.61,-257.98"/>
<polygon fill="#964b00" stroke="#964b00" points="239.14,-222.74 235.79,-212.69 232.14,-222.64 239.14,-222.74"/>
</g>
<!-- node_0x7c13747e0250 -->
<g id="node7" class="node">
<title>node_0x7c13747e0250</title>
<path fill="#daa520" stroke="#964b00" d="M345,-135.25C345,-135.25 463.75,-135.25 463.75,-135.25 469.75,-135.25 475.75,-141.25 475.75,-147.25 475.75,-147.25 475.75,-199 475.75,-199 475.75,-205 469.75,-211 463.75,-211 463.75,-211 345,-211 345,-211 339,-211 333,-205 333,-199 333,-199 333,-147.25 333,-147.25 333,-141.25 339,-135.25 345,-135.25"/>
<text xml:space="preserve" text-anchor="middle" x="404.38" y="-193.7" font-family="Times,serif" font-size="14.00">type = VARIABLE</text>
<polyline fill="none" stroke="#964b00" points="333,-185.75 475.75,-185.75"/>
<text xml:space="preserve" text-anchor="middle" x="404.25" y="-168.45" font-family="Times,serif" font-size="14.00">val = C</text>
<polyline fill="none" stroke="#964b00" points="333,-160.5 475.75,-160.5"/>
<text xml:space="preserve" text-anchor="middle" x="368.5" y="-143.2" font-family="Times,serif" font-size="14.00">0</text>
<polyline fill="none" stroke="#964b00" points="404,-135.25 404,-160.5"/>
<text xml:space="preserve" text-anchor="middle" x="439.5" y="-143.2" font-family="Times,serif" font-size="14.00">0</text>
</g>
<!-- node_0x7c13747e0290&#45;&gt;node_0x7c13747e0250 -->
<g id="edge6" class="edge">
<title>node_0x7c13747e0290&#45;&gt;node_0x7c13747e0250</title>
<path fill="none" stroke="#964b00" d="M405.65,-258.49C405.47,-246.78 405.28,-234.27 405.1,-222.56"/>
<polygon fill="#964b00" stroke="#964b00" points="402.14,-258.08 405.79,-268.03 409.14,-257.98 402.14,-258.08"/>
<polygon fill="#964b00" stroke="#964b00" points="408.61,-222.64 404.96,-212.69 401.61,-222.74 408.61,-222.64"/>
</g>
<!-- node_0x7c13747e02d0 -->
<g id="node8" class="node">
<title>node_0x7c13747e02d0</title>
<path fill="#00ffff" stroke="#964b00" d="M510.25,-135.25C510.25,-135.25 636.5,-135.25 636.5,-135.25 642.5,-135.25 648.5,-141.25 648.5,-147.25 648.5,-147.25 648.5,-199 648.5,-199 648.5,-205 642.5,-211 636.5,-211 636.5,-211 510.25,-211 510.25,-211 504.25,-211 498.25,-205 498.25,-199 498.25,-199 498.25,-147.25 498.25,-147.25 498.25,-141.25 504.25,-135.25 510.25,-135.25"/>
<text xml:space="preserve" text-anchor="middle" x="573.38" y="-193.7" font-family="Times,serif" font-size="14.00">type = OPERATOR</text>
<polyline fill="none" stroke="#964b00" points="498.25,-185.75 648.5,-185.75"/>
<text xml:space="preserve" text-anchor="middle" x="573" y="-168.45" font-family="Times,serif" font-size="14.00">val = 3(OP_NOT)</text>
<polyline fill="none" stroke="#964b00" points="498.25,-160.5 648.5,-160.5"/>
<text xml:space="preserve" text-anchor="middle" x="535.25" y="-143.2" font-family="Times,serif" font-size="14.00">L</text>
<polyline fill="none" stroke="#964b00" points="572.25,-135.25 572.25,-160.5"/>
<text xml:space="preserve" text-anchor="middle" x="610" y="-143.2" font-family="Times,serif" font-size="14.00">R</text>
</g>
<!-- node_0x7c13747e0290&#45;&gt;node_0x7c13747e02d0 -->
<g id="edge7" class="edge">
<title>node_0x7c13747e0290&#45;&gt;node_0x7c13747e02d0</title>
<path fill="none" stroke="#964b00" d="M462.11,-262.57C480.05,-248.31 499.92,-232.51 517.85,-218.26"/>
<polygon fill="#964b00" stroke="#964b00" points="460.17,-259.64 454.52,-268.6 464.53,-265.12 460.17,-259.64"/>
<polygon fill="#964b00" stroke="#964b00" points="519.64,-221.31 525.29,-212.35 515.28,-215.83 519.64,-221.31"/>
</g>
<!-- node_0x7c13747e0310 -->
<g id="node9" class="node">
<title>node_0x7c13747e0310</title>
<path fill="#daa520" stroke="#964b00" d="M514,-0.5C514,-0.5 632.75,-0.5 632.75,-0.5 638.75,-0.5 644.75,-6.5 644.75,-12.5 644.75,-12.5 644.75,-64.25 644.75,-64.25 644.75,-70.25 638.75,-76.25 632.75,-76.25 632.75,-76.25 514,-76.25 514,-76.25 508,-76.25 502,-70.25 502,-64.25 502,-64.25 502,-12.5 502,-12.5 502,-6.5 508,-0.5 514,-0.5"/>
<text xml:space="preserve" text-anchor="middle" x="573.38" y="-58.95" font-family="Times,serif" font-size="14.00">type = VARIABLE</text>
<polyline fill="none" stroke="#964b00" points="502,-51 644.75,-51"/>
<text xml:space="preserve" text-anchor="middle" x="573.12" y="-33.7" font-family="Times,serif" font-size="14.00">val = D</text>
<polyline fill="none" stroke="#964b00" points="502,-25.75 644.75,-25.75"/>
<text xml:space="preserve" text-anchor="middle" x="537.5" y="-8.45" font-family="Times,serif" font-size="14.00">0</text>
<polyline fill="none" stroke="#964b00" points="573,-0.5 573,-25.75"/>
<text xml:space="preserve" text-anchor="middle" x="608.5" y="-8.45" font-family="Times,serif" font-size="14.00">0</text>
</g>
<!-- node_0x7c13747e02d0&#45;&gt;node_0x7c13747e0310 -->
<g id="edge8" class="edge">
<title>node_0x7c13747e02d0&#45;&gt;node_0x7c13747e0310</title>
<path fill="none" stroke="#964b00" d="M573.38,-123.28C573.38,-111.67 573.38,-99.28 573.38,-87.69"/>
<polygon fill="#964b00" stroke="#964b00" points="569.88,-123.28 573.38,-133.28 576.88,-123.28 569.88,-123.28"/>
<polygon fill="#964b00" stroke="#964b00" points="576.88,-87.94 573.38,-77.94 569.88,-87.94 576.88,-87.94"/>
</g>
</g>
</svg>
